<svg width="16" height="16" viewBox="0 0 16 16" fill="none" xmlns="http://www.w3.org/2000/svg">
<g clip-path="url(#clip0_39_57)">
<path d="M7.99945 9.93046C8.93065 9.93569 9.84245 9.66444 10.6194 9.15108C11.3963 8.63772 12.0034 7.90534 12.3638 7.04669C12.7242 6.18804 12.8216 5.24175 12.6438 4.32767C12.466 3.41359 12.0209 2.57285 11.3649 1.91191C10.7089 1.25098 9.87155 0.799595 8.95884 0.614924C8.04612 0.430252 7.09912 0.520604 6.23779 0.874536C5.37646 1.22847 4.63954 1.83006 4.12037 2.60311C3.60119 3.37617 3.32312 4.28591 3.32136 5.21712C3.31889 5.83382 3.43796 6.44495 3.67175 7.01561C3.90554 7.58627 4.24948 8.10528 4.68391 8.54299C5.11834 8.98069 5.63475 9.32851 6.20364 9.56658C6.77253 9.80464 7.38276 9.92829 7.99945 9.93046ZM7.99945 1.91339C8.65356 1.91012 9.29392 2.10109 9.83939 2.46212C10.3849 2.82314 10.8109 3.33797 11.0635 3.94135C11.316 4.54473 11.3838 5.20952 11.2582 5.85147C11.1326 6.49341 10.8193 7.08363 10.3579 7.54732C9.89654 8.01101 9.3079 8.3273 8.6666 8.45612C8.02529 8.58494 7.36017 8.52049 6.75553 8.27093C6.15089 8.02137 5.63393 7.59794 5.27018 7.05429C4.90642 6.51064 4.71224 5.87124 4.71223 5.21712C4.71193 4.34358 5.0576 3.50548 5.67364 2.88614C6.28967 2.2668 7.12592 1.91665 7.99945 1.91229V1.91339ZM10.1733 10.3831C10.0604 10.3485 9.94062 10.3432 9.82508 10.3674C9.70954 10.3917 9.60203 10.4448 9.51256 10.5218L7.99945 11.8081L6.48634 10.5218C6.39646 10.4455 6.28895 10.3929 6.17357 10.3686C6.05818 10.3444 5.93857 10.3494 5.82559 10.3831C4.85209 10.6958 0 12.3653 0 14.7881C0.000580819 14.9725 0.0740943 15.1491 0.204492 15.2795C0.334889 15.4099 0.511579 15.4835 0.695987 15.484H15.3062C15.4906 15.4835 15.6673 15.4099 15.7977 15.2795C15.9281 15.1491 16.0016 14.9725 16.0022 14.7881C15.9989 12.3653 11.1468 10.6969 10.1733 10.3831ZM1.76089 14.0866C2.97703 13.0698 4.3846 12.307 5.90048 11.8433L7.55234 13.2518C7.67755 13.3612 7.83816 13.4214 8.0044 13.4214C8.17065 13.4214 8.33126 13.3612 8.45647 13.2518L10.1083 11.8433C11.6182 12.3211 13.0232 13.0825 14.2479 14.0866H1.76089Z" fill="#184363"/>
</g>
<defs>
<clipPath id="clip0_39_57">
<rect width="16" height="16" fill="white"/>
</clipPath>
</defs>
</svg>
