<svg width="18" height="18" viewBox="0 0 18 18" fill="none" xmlns="http://www.w3.org/2000/svg">
<mask id="mask0_7_169" style="mask-type:alpha" maskUnits="userSpaceOnUse" x="0" y="0" width="18" height="18">
<g clip-path="url(#clip0_7_169)">
<path d="M17.9636 5.11642L15.8698 11.7097C15.8002 11.9358 15.6601 12.1338 15.47 12.2746C15.2799 12.4155 15.0497 12.4919 14.8131 12.4926H6.73345C6.50225 12.4938 6.27603 12.4255 6.08411 12.2966C5.89219 12.1677 5.74343 11.9841 5.65712 11.7696L2.56554 3.49264H0.785784C0.583185 3.48527 0.391339 3.39962 0.250613 3.25368C0.109886 3.10775 0.03125 2.91292 0.03125 2.71019C0.03125 2.50745 0.109886 2.31262 0.250613 2.16669C0.391339 2.02076 0.583185 1.9351 0.785784 1.92773H3.11403C3.27695 1.9297 3.4354 1.98127 3.56827 2.07557C3.70114 2.16987 3.80212 2.30242 3.85775 2.45557L7.04643 10.9257H14.4836L16.1466 5.64322H6.92867C6.82353 5.64704 6.71869 5.62963 6.62043 5.59203C6.52216 5.55443 6.43248 5.4974 6.35674 5.42437C6.28101 5.35134 6.22077 5.26379 6.17962 5.16695C6.13848 5.07011 6.11727 4.96598 6.11727 4.86077C6.11727 4.75555 6.13848 4.65142 6.17962 4.55458C6.22077 4.45774 6.28101 4.37019 6.35674 4.29716C6.43248 4.22413 6.52216 4.1671 6.62043 4.1295C6.71869 4.0919 6.82353 4.07449 6.92867 4.07831H17.2198C17.3431 4.0802 17.4641 4.11134 17.5729 4.16917C17.6818 4.22699 17.7753 4.30985 17.8458 4.41092C17.9219 4.50979 17.9724 4.62588 17.993 4.74893C18.0135 4.87198 18.0034 4.9982 17.9636 5.11642ZM7.12493 13.5297C6.83132 13.5302 6.54694 13.6324 6.32023 13.819C6.09352 14.0055 5.93849 14.2649 5.88155 14.553C5.8246 14.841 5.86926 15.1399 6.00792 15.3987C6.14658 15.6575 6.37066 15.8603 6.64201 15.9724C6.91336 16.0846 7.2152 16.0992 7.49612 16.0138C7.77704 15.9284 8.01968 15.7483 8.18272 15.5041C8.34575 15.2599 8.4191 14.9668 8.39028 14.6746C8.36145 14.3824 8.23223 14.1092 8.02462 13.9016C7.78479 13.6649 7.46188 13.5314 7.12493 13.5297ZM14.1489 13.5297C13.8553 13.5302 13.5709 13.6324 13.3442 13.819C13.1175 14.0055 12.9625 14.2649 12.9055 14.553C12.8486 14.841 12.8932 15.1399 13.0319 15.3987C13.1706 15.6575 13.3947 15.8603 13.666 15.9724C13.9373 16.0846 14.2392 16.0992 14.5201 16.0138C14.801 15.9284 15.0437 15.7483 15.2067 15.5041C15.3697 15.2599 15.4431 14.9668 15.4143 14.6746C15.3854 14.3824 15.2562 14.1092 15.0486 13.9016C14.8088 13.6649 14.4859 13.5314 14.1489 13.5297Z" fill="black"/>
</g>
</mask>
<g mask="url(#mask0_7_169)">
<rect width="18" height="18" fill="#184363"/>
</g>
<defs>
<clipPath id="clip0_7_169">
<rect width="18" height="14.1461" fill="white" transform="translate(0 1.92773)"/>
</clipPath>
</defs>
</svg>
