<svg width="13" height="14" viewBox="0 0 13 14" fill="none" xmlns="http://www.w3.org/2000/svg">
<g clip-path="url(#clip0_2_63)">
<path d="M11.7907 3.7186H0.993813C0.834705 3.7186 0.682113 3.65544 0.569606 3.543C0.4571 3.43057 0.393894 3.27807 0.393894 3.11907C0.393894 2.96006 0.4571 2.80757 0.569606 2.69513C0.682113 2.5827 0.834705 2.51953 0.993813 2.51953H11.7907C11.9498 2.51953 12.1024 2.5827 12.2149 2.69513C12.3274 2.80757 12.3906 2.96006 12.3906 3.11907C12.3906 3.27807 12.3274 3.43057 12.2149 3.543C12.1024 3.65544 11.9498 3.7186 11.7907 3.7186ZM7.80215 6.32584C7.80172 6.16697 7.73838 6.01473 7.62596 5.90239C7.51355 5.79004 7.36121 5.72674 7.20223 5.72631H0.990544C0.831435 5.72631 0.678844 5.78947 0.566337 5.90191C0.453831 6.01434 0.390625 6.16684 0.390625 6.32584C0.390625 6.48485 0.453831 6.63735 0.566337 6.74978C0.678844 6.86221 0.831435 6.92538 0.990544 6.92538H7.20223C7.36121 6.92495 7.51355 6.86165 7.62596 6.7493C7.73838 6.63696 7.80172 6.48472 7.80215 6.32584ZM9.6297 9.51792C9.62927 9.35905 9.56592 9.2068 9.45351 9.09446C9.3411 8.98212 9.18876 8.91882 9.02978 8.91839H0.993813C0.834705 8.91839 0.682113 8.98155 0.569606 9.09398C0.4571 9.20642 0.393894 9.35891 0.393894 9.51792C0.393894 9.67693 0.4571 9.82942 0.569606 9.94186C0.682113 10.0543 0.834705 10.1175 0.993813 10.1175H9.03141C9.19011 10.1166 9.34203 10.0531 9.45409 9.94081C9.56615 9.82851 9.62927 9.67651 9.6297 9.51792ZM11.8487 12.71C11.8483 12.5511 11.785 12.3989 11.6726 12.2865C11.5601 12.1742 11.4078 12.1109 11.2488 12.1105H1.03877C0.879658 12.1105 0.727066 12.1736 0.614559 12.2861C0.502053 12.3985 0.438847 12.551 0.438847 12.71C0.438847 12.869 0.502053 13.0215 0.614559 13.1339C0.727066 13.2464 0.879658 13.3095 1.03877 13.3095H11.2505C11.4094 13.3091 11.5618 13.2458 11.6742 13.1335C11.7866 13.0211 11.8499 12.8689 11.8504 12.71H11.8487Z" fill="#184363"/>
</g>
<defs>
<clipPath id="clip0_2_63">
<rect width="12" height="10.79" fill="white" transform="translate(0.390625 2.51953)"/>
</clipPath>
</defs>
</svg>
