<svg width="24" height="24" viewBox="0 0 24 24" fill="none" xmlns="http://www.w3.org/2000/svg">
<path fill-rule="evenodd" clip-rule="evenodd" d="M6.15156 5V18.8125C6.15156 20.2989 7.18725 21.35 8.28728 21.35H15.7158C16.8159 21.35 17.8516 20.2989 17.8516 18.8125V5H19.1516V18.8125C19.1516 20.8469 17.6928 22.65 15.7158 22.65H8.28728C6.31029 22.65 4.85156 20.8469 4.85156 18.8125V5H6.15156Z" fill="white"/>
<path fill-rule="evenodd" clip-rule="evenodd" d="M12.65 4.35L12.65 1.5H11.35V4.35H2.5V5.65H12H21.5V4.35H12.65ZM9.35 17.8V9.29999H10.65V17.8H9.35ZM13.35 17.8V9.29999H14.65V17.8H13.35Z" fill="white"/>
</svg>
