<svg width="16" height="14" viewBox="0 0 16 14" fill="none" xmlns="http://www.w3.org/2000/svg">
<path d="M8 2.76566C7.84826 2.76566 7.70307 2.7039 7.59784 2.59458C6.06635 1.00339 4.45475 0.858204 3.25534 1.40645C2.02074 1.97079 1.11628 3.31309 1.11628 4.91374C1.11628 6.54901 1.78547 7.80944 2.74477 8.8897C3.72322 9.99147 4.95657 10.8598 6.0845 11.7489C6.47597 12.0575 6.82515 12.3284 7.16175 12.525C7.49849 12.7219 7.7696 12.8117 8 12.8117C8.2304 12.8117 8.50151 12.7219 8.83825 12.525C9.17485 12.3284 9.52402 12.0575 9.91554 11.7489C11.0434 10.8598 12.2768 9.99147 13.2552 8.8897C14.2145 7.80944 14.8837 6.54901 14.8837 4.91374C14.8837 3.31309 13.9792 1.97079 12.7446 1.40645C11.5452 0.858204 9.93362 1.00339 8.40216 2.59458C8.29693 2.7039 8.15174 2.76566 8 2.76566Z" fill="white"/>
</svg>
