<svg width="18" height="18" viewBox="0 0 18 18" fill="none" xmlns="http://www.w3.org/2000/svg">
<path d="M17.5169 3.98681C17.1367 3.07726 16.5017 2.29702 15.6883 1.74004C14.8749 1.18306 13.9178 0.873089 12.9324 0.847456C12.1833 0.818084 11.4377 0.963617 10.7546 1.27252C10.0715 1.58142 9.46984 2.04519 8.99719 2.62707C8.52466 2.04536 7.92316 1.58169 7.24033 1.2728C6.5575 0.963902 5.81212 0.818276 5.06324 0.847456C4.07839 0.873786 3.12213 1.18408 2.30945 1.74102C1.49678 2.29796 0.862319 3.07782 0.482374 3.98681C0.041515 4.95983 -0.0964565 6.04296 0.0863925 7.09543C0.269242 8.1479 0.764455 9.12104 1.50767 9.88835C3.69345 12.3647 6.01319 14.7195 8.45647 16.9421C8.61381 17.0771 8.81428 17.1513 9.0216 17.1513C9.22892 17.1513 9.4294 17.0771 9.58673 16.9421C9.62823 16.9214 12.8518 13.9907 16.5355 9.88835C17.2641 9.11181 17.7462 8.13674 17.9209 7.08635C18.0955 6.03595 17.955 4.95734 17.5169 3.98681ZM15.2515 8.78127C13.2537 11.0072 11.166 13.1507 8.99353 15.2064C6.81953 13.1538 4.73331 11.0102 2.74046 8.78127C2.22049 8.24599 1.8713 7.56828 1.73722 6.83417C1.60313 6.10006 1.6902 5.34266 1.98736 4.65813C2.24833 4.04959 2.67509 3.52665 3.21895 3.14897C3.76281 2.77129 4.40187 2.55407 5.06324 2.5221C5.74412 2.46147 6.42519 2.63622 6.99276 3.0172C7.56033 3.39817 7.98005 3.9623 8.18184 4.61541C8.22283 4.79518 8.32416 4.95548 8.46896 5.06963C8.61376 5.18378 8.79329 5.24489 8.97766 5.24279C9.16271 5.23833 9.34156 5.17515 9.48834 5.06237C9.63513 4.94959 9.74225 4.79307 9.79423 4.61541C9.99955 3.9645 10.4201 3.40274 10.9868 3.02236C11.5535 2.64197 12.2327 2.46557 12.9128 2.5221C13.576 2.55496 14.2163 2.77482 14.7597 3.15627C15.3031 3.53771 15.7275 4.06517 15.9838 4.67766C16.2891 5.35587 16.3826 6.11046 16.2519 6.84265C16.1212 7.57485 15.7725 8.25053 15.2515 8.78127ZM15.0428 6.35353C15.0484 6.44973 15.0349 6.5461 15.0032 6.63711C14.9715 6.72811 14.9221 6.81196 14.858 6.88386C14.7938 6.95575 14.716 7.01427 14.6292 7.05605C14.5424 7.09784 14.4481 7.12208 14.3519 7.12738H14.3104C14.1232 7.12768 13.9429 7.05624 13.8067 6.92775C13.6705 6.79926 13.5887 6.62348 13.5781 6.43652C13.4938 5.24401 12.7236 5.05482 12.5735 5.03407C12.3837 5.00529 12.2125 4.90422 12.0955 4.75202C11.9786 4.59981 11.925 4.40828 11.9461 4.2175C11.9797 4.02603 12.085 3.85457 12.2406 3.73801C12.3961 3.62145 12.5903 3.56856 12.7835 3.59012C13.4226 3.71644 13.9978 4.06111 14.4107 4.56505C14.8236 5.06899 15.0483 5.70084 15.0464 6.3523L15.0428 6.35353ZM14.0382 7.56801C14.1889 7.72729 14.278 7.93495 14.2897 8.15389C14.2926 8.26393 14.2717 8.3733 14.2283 8.47446C14.1849 8.57561 14.12 8.66613 14.0382 8.73977C13.9626 8.81909 13.8717 8.88224 13.771 8.92539C13.6703 8.96854 13.5619 8.99079 13.4523 8.99079C13.3428 8.99079 13.2343 8.96854 13.1336 8.92539C13.0329 8.88224 12.942 8.81909 12.8665 8.73977C12.7124 8.58277 12.6227 8.37375 12.615 8.15389C12.6141 8.04414 12.6359 7.93539 12.6792 7.83454C12.7225 7.73368 12.7862 7.64292 12.8665 7.56801C13.0235 7.41391 13.2325 7.32421 13.4523 7.31657C13.6694 7.33495 13.8754 7.42025 14.0419 7.56069L14.0382 7.56801Z" fill="#184363"/>
</svg>
