<svg width="40" height="40" viewBox="0 0 40 40" fill="none" xmlns="http://www.w3.org/2000/svg">
<path d="M37.0024 5.995C35.073 4.07555 32.4622 2.99805 29.7407 2.99805C27.0191 2.99805 24.4083 4.07555 22.479 5.995L19.9995 8.47414L17.5204 5.995C15.591 4.07555 12.9802 2.99805 10.2586 2.99805C7.53711 2.99805 4.92628 4.07555 2.99692 5.995C1.07749 7.92437 0 10.5352 0 13.2567C0 15.9782 1.07749 18.5891 2.99692 20.5184L19.1157 36.6376C19.3501 36.872 19.668 37.0037 19.9995 37.0037C20.331 37.0037 20.6489 36.872 20.8833 36.6376L37.0024 20.5187C38.9218 18.5893 39.9993 15.9785 39.9993 13.257C39.9993 10.5354 38.9218 7.9246 37.0024 5.99523V5.995ZM35.2347 18.7509L19.9995 33.9861L4.76434 18.7509C3.31366 17.2903 2.49949 15.3153 2.49949 13.2568C2.49949 11.1982 3.31366 9.22319 4.76434 7.76266C6.22489 6.31196 8.19991 5.4978 10.2585 5.4978C12.3171 5.4978 14.2921 6.31196 15.7526 7.76266L19.1157 11.1259C19.3501 11.3602 19.668 11.4919 19.9995 11.4919C20.331 11.4919 20.6489 11.3602 20.8833 11.1259L24.2464 7.76273C25.7043 6.30961 27.6793 5.49442 29.7378 5.49612C31.7962 5.49782 33.7699 6.31628 35.2254 7.77181C36.681 9.22734 37.4995 11.201 37.5012 13.2594C37.5029 15.3179 36.6878 17.2929 35.2347 18.7509Z" fill="#3DAED9"/>
</svg>
