<svg width="15" height="14" viewBox="0 0 15 14" fill="none" xmlns="http://www.w3.org/2000/svg">
<path d="M14.6022 2.62125C14.2852 1.86271 13.7556 1.212 13.0772 0.74749C12.3989 0.282978 11.6007 0.024468 10.7788 0.00309093C10.1541 -0.0214049 9.53228 0.0999669 8.96262 0.357584C8.39297 0.615201 7.89115 1.00198 7.49697 1.48726C7.10289 1.00212 6.60125 0.615427 6.03178 0.357816C5.46232 0.100205 4.84068 -0.0212448 4.21613 0.00309093C3.39479 0.0250497 2.59728 0.28383 1.91953 0.748306C1.24177 1.21278 0.712642 1.86317 0.395775 2.62125C0.0281073 3.43273 -0.0869584 4.33605 0.0655342 5.21379C0.218027 6.09153 0.631026 6.9031 1.25085 7.54302C3.07375 9.60823 5.00837 11.5721 7.04602 13.4257C7.17724 13.5383 7.34443 13.6002 7.51733 13.6002C7.69023 13.6002 7.85742 13.5383 7.98864 13.4257C8.02325 13.4084 10.7116 10.9643 13.7838 7.54302C14.3914 6.8954 14.7935 6.08222 14.9391 5.20621C15.0848 4.33019 14.9676 3.43066 14.6022 2.62125ZM12.7129 6.61974C11.0469 8.47613 9.30573 10.2638 7.49392 11.9782C5.68084 10.2664 3.94097 8.47862 2.27898 6.61974C1.84534 6.17333 1.55412 5.60813 1.44229 4.9959C1.33047 4.38366 1.40308 3.75201 1.6509 3.18112C1.86855 2.67361 2.22446 2.23749 2.67803 1.92251C3.1316 1.60753 3.66456 1.42638 4.21613 1.39971C4.78397 1.34915 5.35197 1.49489 5.82532 1.81261C6.29866 2.13034 6.64869 2.60081 6.81698 3.14549C6.85117 3.29542 6.93568 3.42911 7.05644 3.52431C7.1772 3.61951 7.32692 3.67047 7.48068 3.66872C7.63502 3.665 7.78417 3.6123 7.90658 3.51825C8.029 3.4242 8.11834 3.29366 8.16169 3.14549C8.33292 2.60265 8.68363 2.13415 9.15625 1.81692C9.62886 1.49968 10.1953 1.35257 10.7625 1.39971C11.3156 1.42712 11.8496 1.61048 12.3028 1.9286C12.756 2.24671 13.11 2.6866 13.3237 3.19741C13.5783 3.76303 13.6562 4.39234 13.5472 5.00297C13.4383 5.61361 13.1475 6.17712 12.7129 6.61974ZM12.5389 4.59505C12.5435 4.67528 12.5323 4.75565 12.5059 4.83155C12.4794 4.90745 12.4383 4.97738 12.3847 5.03734C12.3312 5.09729 12.2664 5.14609 12.194 5.18094C12.1215 5.21579 12.043 5.23601 11.9627 5.24043H11.9281C11.7719 5.24068 11.6216 5.1811 11.508 5.07394C11.3944 4.96678 11.3262 4.82018 11.3173 4.66427C11.2471 3.66974 10.6048 3.51195 10.4796 3.49465C10.3213 3.47065 10.1784 3.38636 10.0809 3.25942C9.9834 3.13249 9.93875 2.97275 9.95633 2.81364C9.98434 2.65396 10.0721 2.51096 10.2019 2.41376C10.3316 2.31655 10.4935 2.27244 10.6546 2.29042C11.1876 2.39577 11.6674 2.68322 12.0117 3.10349C12.3561 3.52377 12.5435 4.05072 12.5419 4.59403L12.5389 4.59505ZM11.7011 5.60791C11.8267 5.74074 11.9011 5.91393 11.9108 6.09652C11.9133 6.18829 11.8958 6.2795 11.8596 6.36386C11.8234 6.44823 11.7693 6.52372 11.7011 6.58513C11.6381 6.65129 11.5623 6.70395 11.4783 6.73994C11.3943 6.77592 11.3039 6.79448 11.2125 6.79448C11.1211 6.79448 11.0307 6.77592 10.9467 6.73994C10.8627 6.70395 10.7869 6.65129 10.7239 6.58513C10.5953 6.4542 10.5205 6.27988 10.5142 6.09652C10.5134 6.00499 10.5316 5.9143 10.5677 5.83019C10.6038 5.74607 10.657 5.67038 10.7239 5.60791C10.8548 5.47939 11.0291 5.40458 11.2125 5.39821C11.3935 5.41354 11.5653 5.48468 11.7041 5.6018L11.7011 5.60791Z" fill="white"/>
</svg>
