<svg width="40" height="40" viewBox="0 0 40 40" fill="none" xmlns="http://www.w3.org/2000/svg">
<path d="M11.4062 33.2812C12.2692 33.2812 12.9688 32.5817 12.9688 31.7188C12.9688 30.8558 12.2692 30.1562 11.4062 30.1562C10.5433 30.1562 9.84375 30.8558 9.84375 31.7188C9.84375 32.5817 10.5433 33.2812 11.4062 33.2812Z" fill="#3DAED9"/>
<path d="M11.4062 22.3438C12.2692 22.3438 12.9688 21.6442 12.9688 20.7812C12.9688 19.9183 12.2692 19.2188 11.4062 19.2188C10.5433 19.2188 9.84375 19.9183 9.84375 20.7812C9.84375 21.6442 10.5433 22.3438 11.4062 22.3438Z" fill="#3DAED9"/>
<path d="M26.6406 13.75V9.0625C26.6406 8.41531 26.1159 7.89062 25.4688 7.89062H14.5312C13.8841 7.89062 13.3594 8.41531 13.3594 9.0625V13.75C13.3594 14.3972 13.8841 14.9219 14.5312 14.9219H25.4688C26.1159 14.9219 26.6406 14.3972 26.6406 13.75ZM24.2969 12.5781H15.7031V10.2344H24.2969V12.5781Z" fill="#3DAED9"/>
<path d="M11.4062 27.8125C12.2692 27.8125 12.9688 27.1129 12.9688 26.25C12.9688 25.3871 12.2692 24.6875 11.4062 24.6875C10.5433 24.6875 9.84375 25.3871 9.84375 26.25C9.84375 27.1129 10.5433 27.8125 11.4062 27.8125Z" fill="#3DAED9"/>
<path d="M29.375 19.6094H16.875C16.2278 19.6094 15.7031 20.1341 15.7031 20.7812C15.7031 21.4284 16.2278 21.9531 16.875 21.9531H29.375C30.0222 21.9531 30.5469 21.4284 30.5469 20.7812C30.5469 20.1341 30.0222 19.6094 29.375 19.6094Z" fill="#3DAED9"/>
<path d="M29.375 30.5469H16.875C16.2278 30.5469 15.7031 31.0716 15.7031 31.7188C15.7031 32.3659 16.2278 32.8906 16.875 32.8906H29.375C30.0222 32.8906 30.5469 32.3659 30.5469 31.7188C30.5469 31.0716 30.0222 30.5469 29.375 30.5469Z" fill="#3DAED9"/>
<path d="M34.8438 0H29.7656C29.1184 0 28.5938 0.524687 28.5938 1.17188C28.5938 2.03344 27.8928 2.73438 27.0312 2.73438C26.1697 2.73438 25.4688 2.03344 25.4688 1.17188C25.4688 0.524687 24.9441 0 24.2969 0H15.7031C15.0559 0 14.5312 0.524687 14.5312 1.17188C14.5312 2.03344 13.8303 2.73438 12.9688 2.73438C12.1072 2.73438 11.4062 2.03344 11.4062 1.17188C11.4062 0.524687 10.8816 0 10.2344 0H5.15625C4.50906 0 3.98438 0.524687 3.98438 1.17188V38.8281C3.98438 39.4753 4.50906 40 5.15625 40H34.8438C35.4909 40 36.0156 39.4753 36.0156 38.8281V1.17188C36.0156 0.524687 35.4909 0 34.8438 0ZM33.6719 37.6562H6.32812V2.34375H9.24203C9.74094 3.92703 11.2229 5.07812 12.9688 5.07812C14.7146 5.07812 16.1966 3.92703 16.6955 2.34375H23.3045C23.8034 3.92703 25.2854 5.07812 27.0312 5.07812C28.7771 5.07812 30.2591 3.92703 30.758 2.34375H33.6719V37.6562Z" fill="#3DAED9"/>
<path d="M29.375 25.0781H16.875C16.2278 25.0781 15.7031 25.6028 15.7031 26.25C15.7031 26.8972 16.2278 27.4219 16.875 27.4219H29.375C30.0222 27.4219 30.5469 26.8972 30.5469 26.25C30.5469 25.6028 30.0222 25.0781 29.375 25.0781Z" fill="#3DAED9"/>
</svg>
