<svg width="24" height="48" viewBox="0 0 24 48" fill="none" xmlns="http://www.w3.org/2000/svg">
<path d="M12.0522 14.119C13.399 14.1189 14.7155 13.7194 15.8352 12.9712C16.955 12.2229 17.8277 11.1593 18.343 9.91504C18.8583 8.67076 18.9931 7.30161 18.7303 5.98073C18.4675 4.65985 17.8189 3.44656 16.8666 2.49428C15.9142 1.54201 14.7009 0.893515 13.38 0.630809C12.0591 0.368104 10.6899 0.502984 9.44569 1.01839C8.20145 1.5338 7.13798 2.40659 6.38976 3.5264C5.64155 4.6462 5.24219 5.96273 5.24219 7.3095C5.24417 9.11497 5.96231 10.8459 7.23901 12.1225C8.51572 13.3991 10.2467 14.1172 12.0522 14.119ZM12.0522 2.5C13.0034 2.5001 13.9332 2.78226 14.7241 3.31079C15.5149 3.83933 16.1313 4.5905 16.4952 5.46933C16.8592 6.34816 16.9543 7.31518 16.7687 8.2481C16.5831 9.18102 16.125 10.0379 15.4523 10.7105C14.7797 11.3831 13.9227 11.8411 12.9898 12.0266C12.0569 12.2122 11.0898 12.1169 10.2111 11.7529C9.33226 11.3888 8.58115 10.7724 8.0527 9.98147C7.52425 9.19056 7.24219 8.26071 7.24219 7.3095C7.24364 6.0343 7.75089 4.81176 8.65264 3.9101C9.55439 3.00845 10.777 2.50133 12.0522 2.5Z" fill="#3DAED9"/>
<path d="M18.0075 15.4648H5.9975C4.55658 15.4666 3.17516 16.0397 2.15627 17.0586C1.13739 18.0775 0.56422 19.4589 0.5625 20.8998V32.0248C0.563426 32.8388 0.887169 33.6191 1.4627 34.1946C2.03824 34.7702 2.81857 35.0939 3.6325 35.0948H5.1925V43.6448C5.19356 44.6669 5.60005 45.6468 6.32277 46.3696C7.0455 47.0923 8.02541 47.4988 9.0475 47.4998H14.9575C15.9796 47.4988 16.9595 47.0923 17.6822 46.3696C18.405 45.6468 18.8114 44.6669 18.8125 43.6448V35.0948H20.3725C21.1864 35.0939 21.9668 34.7702 22.5423 34.1946C23.1178 33.6191 23.4416 32.8388 23.4425 32.0248V20.8998C23.4408 19.4589 22.8676 18.0775 21.8487 17.0586C20.8298 16.0397 19.4484 15.4666 18.0075 15.4648ZM21.4425 32.0248C21.4422 32.3085 21.3294 32.5805 21.1288 32.7812C20.9282 32.9818 20.6562 33.0946 20.3725 33.0948H17.8125C17.5473 33.0948 17.2929 33.2002 17.1054 33.3877C16.9179 33.5753 16.8125 33.8296 16.8125 34.0948V43.6448C16.812 44.1367 16.6164 44.6082 16.2686 44.9559C15.9208 45.3037 15.4493 45.4993 14.9575 45.4998H9.0475C8.55569 45.4993 8.08417 45.3037 7.7364 44.9559C7.38864 44.6082 7.19303 44.1367 7.1925 43.6448V34.0948C7.1925 33.8296 7.08714 33.5753 6.89961 33.3877C6.71207 33.2002 6.45772 33.0948 6.1925 33.0948H3.6325C3.3488 33.0946 3.07679 32.9818 2.87619 32.7812C2.67558 32.5805 2.56276 32.3085 2.5625 32.0248V20.8998C2.56356 19.9891 2.9258 19.1161 3.56976 18.4721C4.21371 17.8281 5.08681 17.4659 5.9975 17.4648H18.0075C18.9182 17.4659 19.7913 17.8281 20.4352 18.4721C21.0792 19.1161 21.4414 19.9891 21.4425 20.8998V32.0248Z" fill="#3DAED9"/>
</svg>
