<svg width="18" height="18" viewBox="0 0 18 18" fill="none" xmlns="http://www.w3.org/2000/svg">
<path d="M8.31638 0.569556C6.32932 0.572887 4.4246 1.36372 3.01954 2.76878C1.61447 4.17384 0.823644 6.07856 0.820312 8.06562C0.821973 10.0543 1.61187 11.9613 3.01693 13.3688C4.42199 14.7762 6.32765 15.5693 8.31638 15.5743C10.0802 15.5743 11.7054 14.9538 12.9904 13.927L16.1117 17.0483C16.2698 17.1953 16.4787 17.2753 16.6946 17.2716C16.9105 17.2678 17.1165 17.1805 17.2694 17.028C17.4223 16.8755 17.5101 16.6698 17.5145 16.4539C17.5188 16.238 17.4394 16.0289 17.2928 15.8703L14.1715 12.7459C15.2375 11.4201 15.8187 9.76998 15.8187 8.06877C15.8187 3.93648 12.4487 0.569556 8.31638 0.569556ZM8.31638 2.23885C11.5479 2.23885 14.1494 4.83727 14.1494 8.06562C14.1494 11.294 11.5479 13.9081 8.31638 13.9081C5.08488 13.9081 2.48645 11.3034 2.48645 8.07192C2.48645 4.84042 5.08488 2.23885 8.31638 2.23885Z" fill="white"/>
</svg>
