<svg width="10" height="16" viewBox="0 0 8 13" fill="none" xmlns="http://www.w3.org/2000/svg">
<path d="M3.68784 0.126898L0.127804 3.687C0.045398 3.76934 0 3.87926 0 3.99646C0 4.11366 0.045398 4.22358 0.127804 4.30592L0.389916 4.5681C0.560711 4.7387 0.838302 4.7387 1.00884 4.5681L3.99834 1.57859L6.99116 4.57141C7.07357 4.65376 7.18342 4.69922 7.30056 4.69922C7.41783 4.69922 7.52768 4.65376 7.61015 4.57141L7.8722 4.30924C7.9546 4.22683 8 4.11698 8 3.99978C8 3.88257 7.9546 3.77266 7.8722 3.69032L4.30891 0.126898C4.22624 0.0443623 4.11587 -0.000970557 3.99854 -0.000710396C3.88075 -0.000970557 3.77044 0.0443623 3.68784 0.126898Z" fill="#6B7280"/>
<path d="M4.31216 12.5684L7.8722 9.00831C7.9546 8.92597 8 8.81605 8 8.69885C8 8.58165 7.9546 8.47173 7.8722 8.38939L7.61008 8.12721C7.43929 7.95661 7.1617 7.95661 6.99116 8.12721L4.00166 11.1167L1.00884 8.1239C0.926432 8.04156 0.816579 7.99609 0.699442 7.99609C0.582174 7.99609 0.472321 8.04156 0.389851 8.1239L0.127804 8.38607C0.0453981 8.46848 3.59552e-07 8.57833 3.59552e-07 8.69554C3.59552e-07 8.81274 0.0453981 8.92266 0.127804 9.005L3.69109 12.5684C3.77376 12.651 3.88413 12.6963 4.00146 12.696C4.11925 12.6963 4.22956 12.651 4.31216 12.5684Z" fill="#6B7280"/>
</svg>
