<svg width="6" height="8" viewBox="0 0 6 8" fill="none" xmlns="http://www.w3.org/2000/svg">
<path d="M5.22076 3.68784L1.66066 0.127804C1.57832 0.045398 1.4684 0 1.3512 0C1.23399 0 1.12408 0.045398 1.04174 0.127804L0.779558 0.389916C0.608958 0.560711 0.608958 0.838302 0.779558 1.00884L3.76906 3.99834L0.776241 6.99116C0.693901 7.07357 0.648438 7.18342 0.648438 7.30056C0.648438 7.41783 0.693901 7.52768 0.776241 7.61015L1.03842 7.8722C1.12082 7.9546 1.23068 8 1.34788 8C1.46508 8 1.575 7.9546 1.65734 7.8722L5.22076 4.30891C5.30329 4.22624 5.34863 4.11587 5.34837 3.99854C5.34863 3.88075 5.30329 3.77044 5.22076 3.68784Z" fill="#39CB74"/>
</svg>
