<svg width="16" height="14" viewBox="0 0 16 14" fill="none" xmlns="http://www.w3.org/2000/svg">
<path d="M8 2.20752L7.59784 2.59458C7.70307 2.7039 7.84826 2.76566 8 2.76566C8.15174 2.76566 8.29693 2.7039 8.40216 2.59458L8 2.20752ZM6.0845 11.7489C4.95657 10.8598 3.72321 9.99146 2.74477 8.8897C1.78547 7.80944 1.11628 6.54901 1.11628 4.91373H0C0 6.89736 0.826419 8.41066 1.91012 9.63091C2.97468 10.8296 4.33174 11.7886 5.39343 12.6256L6.0845 11.7489ZM1.11628 4.91373C1.11628 3.31309 2.02074 1.97079 3.25534 1.40645C4.45475 0.858204 6.06635 1.00339 7.59784 2.59458L8.40216 1.82047C6.58493 -0.0675338 4.4756 -0.3787 2.79126 0.391212C1.14211 1.14504 0 2.89545 0 4.91373H1.11628ZM5.39343 12.6256C5.77462 12.9261 6.18384 13.2465 6.59855 13.4888C7.01313 13.7311 7.48621 13.928 8 13.928V12.8117C7.7696 12.8117 7.49849 12.7219 7.16175 12.525C6.82515 12.3284 6.47597 12.0575 6.0845 11.7489L5.39343 12.6256ZM10.6066 12.6256C11.6682 11.7886 13.0253 10.8296 14.0899 9.63091C15.1736 8.41066 16 6.89736 16 4.91373H14.8837C14.8837 6.54901 14.2145 7.80944 13.2552 8.8897C12.2768 9.99146 11.0434 10.8598 9.91553 11.7489L10.6066 12.6256ZM16 4.91373C16 2.89545 14.8579 1.14504 13.2087 0.391212C11.5244 -0.3787 9.41507 -0.0675338 7.59784 1.82047L8.40216 2.59458C9.93362 1.00339 11.5452 0.858204 12.7446 1.40645C13.9792 1.97079 14.8837 3.31309 14.8837 4.91373H16ZM9.91553 11.7489C9.52402 12.0575 9.17485 12.3284 8.83825 12.525C8.50151 12.7219 8.2304 12.8117 8 12.8117V13.928C8.51379 13.928 8.98686 13.7311 9.40145 13.4888C9.81618 13.2465 10.2253 12.9261 10.6066 12.6256L9.91553 11.7489Z" fill="white"/>
</svg>
